<svg width="213" height="59" viewBox="0 0 213 59" fill="none" xmlns="http://www.w3.org/2000/svg">
<path d="M68.12 41.56C68.12 42.2533 67.8933 42.84 67.44 43.32C66.9867 43.7733 66.4133 44 65.72 44C65.0267 44 64.4533 43.7733 64 43.32C63.5467 42.84 63.32 42.2533 63.32 41.56V25.04C63.32 24.3467 63.5467 23.7733 64 23.32C64.4533 22.84 65.0267 22.6 65.72 22.6C66.4133 22.6 66.9867 22.84 67.44 23.32C67.8933 23.7733 68.12 24.3467 68.12 25.04V41.56ZM65.68 20C64.7733 20 64.1333 19.8533 63.76 19.56C63.3867 19.2667 63.2 18.7467 63.2 18V17.24C63.2 16.4667 63.4 15.9467 63.8 15.68C64.2267 15.3867 64.8667 15.24 65.72 15.24C66.6533 15.24 67.3067 15.3867 67.68 15.68C68.0533 15.9733 68.24 16.4933 68.24 17.24V18C68.24 18.7733 68.04 19.3067 67.64 19.6C67.24 19.8667 66.5867 20 65.68 20ZM84.4931 22.2C86.4665 22.2 87.9598 22.6133 88.9731 23.44C90.0131 24.2667 90.7198 25.3733 91.0931 26.76C91.4931 28.12 91.6931 29.64 91.6931 31.32V41.56C91.6931 42.2533 91.4665 42.84 91.0131 43.32C90.5598 43.7733 89.9865 44 89.2931 44C88.5998 44 88.0265 43.7733 87.5731 43.32C87.1198 42.84 86.8931 42.2533 86.8931 41.56V31.32C86.8931 30.44 86.7731 29.6533 86.5331 28.96C86.3198 28.24 85.9198 27.6667 85.3331 27.24C84.7465 26.8133 83.9065 26.6 82.8131 26.6C81.7465 26.6 80.8398 26.8133 80.0931 27.24C79.3731 27.6667 78.8131 28.24 78.4131 28.96C78.0398 29.6533 77.8531 30.44 77.8531 31.32V41.56C77.8531 42.2533 77.6265 42.84 77.1731 43.32C76.7198 43.7733 76.1465 44 75.4531 44C74.7598 44 74.1865 43.7733 73.7331 43.32C73.2798 42.84 73.0531 42.2533 73.0531 41.56V25.04C73.0531 24.3467 73.2798 23.7733 73.7331 23.32C74.1865 22.84 74.7598 22.6 75.4531 22.6C76.1465 22.6 76.7198 22.84 77.1731 23.32C77.6265 23.7733 77.8531 24.3467 77.8531 25.04V26.76L77.2531 26.64C77.4931 26.1867 77.8398 25.7067 78.2931 25.2C78.7465 24.6667 79.2798 24.1733 79.8931 23.72C80.5065 23.2667 81.1998 22.9067 81.9731 22.64C82.7465 22.3467 83.5865 22.2 84.4931 22.2ZM114.401 14.4C115.095 14.4 115.668 14.6267 116.121 15.08C116.575 15.5333 116.801 16.12 116.801 16.84V41.56C116.801 42.2533 116.575 42.84 116.121 43.32C115.668 43.7733 115.095 44 114.401 44C113.708 44 113.135 43.7733 112.681 43.32C112.228 42.84 112.001 42.2533 112.001 41.56V39.6L112.881 39.96C112.881 40.3067 112.695 40.7333 112.321 41.24C111.948 41.72 111.441 42.2 110.801 42.68C110.161 43.16 109.401 43.5733 108.521 43.92C107.668 44.24 106.735 44.4 105.721 44.4C103.881 44.4 102.215 43.9333 100.721 43C99.2279 42.04 98.0413 40.7333 97.1613 39.08C96.3079 37.4 95.8813 35.48 95.8813 33.32C95.8813 31.1333 96.3079 29.2133 97.1613 27.56C98.0413 25.88 99.2146 24.5733 100.681 23.64C102.148 22.68 103.775 22.2 105.561 22.2C106.708 22.2 107.761 22.3733 108.721 22.72C109.681 23.0667 110.508 23.5067 111.201 24.04C111.921 24.5733 112.468 25.12 112.841 25.68C113.241 26.2133 113.441 26.6667 113.441 27.04L112.001 27.56V16.84C112.001 16.1467 112.228 15.5733 112.681 15.12C113.135 14.64 113.708 14.4 114.401 14.4ZM106.321 40C107.495 40 108.521 39.7067 109.401 39.12C110.281 38.5333 110.961 37.7333 111.441 36.72C111.948 35.7067 112.201 34.5733 112.201 33.32C112.201 32.04 111.948 30.8933 111.441 29.88C110.961 28.8667 110.281 28.0667 109.401 27.48C108.521 26.8933 107.495 26.6 106.321 26.6C105.175 26.6 104.161 26.8933 103.281 27.48C102.401 28.0667 101.708 28.8667 101.201 29.88C100.721 30.8933 100.481 32.04 100.481 33.32C100.481 34.5733 100.721 35.7067 101.201 36.72C101.708 37.7333 102.401 38.5333 103.281 39.12C104.161 39.7067 105.175 40 106.321 40ZM142.758 33.32C142.758 35.5067 142.265 37.44 141.278 39.12C140.318 40.7733 139.012 42.0667 137.358 43C135.732 43.9333 133.905 44.4 131.878 44.4C129.852 44.4 128.012 43.9333 126.358 43C124.732 42.0667 123.425 40.7733 122.438 39.12C121.478 37.44 120.998 35.5067 120.998 33.32C120.998 31.1333 121.478 29.2133 122.438 27.56C123.425 25.88 124.732 24.5733 126.358 23.64C128.012 22.68 129.852 22.2 131.878 22.2C133.905 22.2 135.732 22.68 137.358 23.64C139.012 24.5733 140.318 25.88 141.278 27.56C142.265 29.2133 142.758 31.1333 142.758 33.32ZM137.958 33.32C137.958 31.96 137.678 30.7867 137.118 29.8C136.585 28.7867 135.852 28 134.918 27.44C134.012 26.88 132.998 26.6 131.878 26.6C130.758 26.6 129.732 26.88 128.798 27.44C127.892 28 127.158 28.7867 126.598 29.8C126.065 30.7867 125.798 31.96 125.798 33.32C125.798 34.6533 126.065 35.8267 126.598 36.84C127.158 37.8267 127.892 38.6 128.798 39.16C129.732 39.72 130.758 40 131.878 40C132.998 40 134.012 39.72 134.918 39.16C135.852 38.6 136.585 37.8267 137.118 36.84C137.678 35.8267 137.958 34.6533 137.958 33.32Z" fill="black"/>
<path d="M151.479 41.56C151.479 42.2533 151.253 42.84 150.799 43.32C150.346 43.7733 149.773 44 149.079 44C148.386 44 147.813 43.7733 147.359 43.32C146.906 42.84 146.679 42.2533 146.679 41.56V25.04C146.679 24.3467 146.906 23.7733 147.359 23.32C147.813 22.84 148.386 22.6 149.079 22.6C149.773 22.6 150.346 22.84 150.799 23.32C151.253 23.7733 151.479 24.3467 151.479 25.04V41.56ZM149.039 20C148.133 20 147.493 19.8533 147.119 19.56C146.746 19.2667 146.559 18.7467 146.559 18V17.24C146.559 16.4667 146.759 15.9467 147.159 15.68C147.586 15.3867 148.226 15.24 149.079 15.24C150.013 15.24 150.666 15.3867 151.039 15.68C151.413 15.9733 151.599 16.4933 151.599 17.24V18C151.599 18.7733 151.399 19.3067 150.999 19.6C150.599 19.8667 149.946 20 149.039 20ZM167.493 22.2C169.359 22.2 171.026 22.68 172.493 23.64C173.986 24.5733 175.159 25.8667 176.013 27.52C176.893 29.1733 177.332 31.0933 177.332 33.28C177.332 35.4667 176.893 37.4 176.013 39.08C175.159 40.7333 173.999 42.04 172.533 43C171.093 43.9333 169.466 44.4 167.653 44.4C166.586 44.4 165.586 44.2267 164.653 43.88C163.719 43.5333 162.893 43.0933 162.173 42.56C161.479 42.0267 160.933 41.4933 160.533 40.96C160.159 40.4 159.973 39.9333 159.973 39.56L161.213 39.04V49.56C161.213 50.2533 160.986 50.8267 160.533 51.28C160.079 51.76 159.506 52 158.812 52C158.119 52 157.546 51.7733 157.093 51.32C156.639 50.8667 156.413 50.28 156.413 49.56V25.04C156.413 24.3467 156.639 23.7733 157.093 23.32C157.546 22.84 158.119 22.6 158.812 22.6C159.506 22.6 160.079 22.84 160.533 23.32C160.986 23.7733 161.213 24.3467 161.213 25.04V27L160.533 26.64C160.533 26.2933 160.719 25.88 161.093 25.4C161.466 24.8933 161.973 24.4 162.613 23.92C163.253 23.4133 163.986 23 164.813 22.68C165.666 22.36 166.559 22.2 167.493 22.2ZM166.893 26.6C165.719 26.6 164.693 26.8933 163.812 27.48C162.933 28.0667 162.239 28.8667 161.733 29.88C161.253 30.8667 161.013 32 161.013 33.28C161.013 34.5333 161.253 35.68 161.733 36.72C162.239 37.7333 162.933 38.5333 163.812 39.12C164.693 39.7067 165.719 40 166.893 40C168.066 40 169.079 39.7067 169.933 39.12C170.813 38.5333 171.493 37.7333 171.973 36.72C172.479 35.68 172.733 34.5333 172.733 33.28C172.733 32 172.479 30.8667 171.973 29.88C171.493 28.8667 170.813 28.0667 169.933 27.48C169.079 26.8933 168.066 26.6 166.893 26.6ZM202.29 33.32C202.29 35.5067 201.796 37.44 200.81 39.12C199.85 40.7733 198.543 42.0667 196.89 43C195.263 43.9333 193.436 44.4 191.41 44.4C189.383 44.4 187.543 43.9333 185.89 43C184.263 42.0667 182.956 40.7733 181.97 39.12C181.01 37.44 180.53 35.5067 180.53 33.32C180.53 31.1333 181.01 29.2133 181.97 27.56C182.956 25.88 184.263 24.5733 185.89 23.64C187.543 22.68 189.383 22.2 191.41 22.2C193.436 22.2 195.263 22.68 196.89 23.64C198.543 24.5733 199.85 25.88 200.81 27.56C201.796 29.2133 202.29 31.1333 202.29 33.32ZM197.49 33.32C197.49 31.96 197.21 30.7867 196.65 29.8C196.116 28.7867 195.383 28 194.45 27.44C193.543 26.88 192.53 26.6 191.41 26.6C190.29 26.6 189.263 26.88 188.33 27.44C187.423 28 186.69 28.7867 186.13 29.8C185.596 30.7867 185.33 31.96 185.33 33.32C185.33 34.6533 185.596 35.8267 186.13 36.84C186.69 37.8267 187.423 38.6 188.33 39.16C189.263 39.72 190.29 40 191.41 40C192.53 40 193.543 39.72 194.45 39.16C195.383 38.6 196.116 37.8267 196.65 36.84C197.21 35.8267 197.49 34.6533 197.49 33.32Z" fill="#3D5656"/>
<path d="M30 49V45Z" fill="black"/>
<path d="M30 49V45" stroke="#3D5656" stroke-width="4" stroke-linecap="round" stroke-linejoin="round"/>
<path d="M16 25V15ZM44 39V26ZM44 17V9Z" fill="black"/>
<path d="M16 25V15M44 39V26M44 17V9" stroke="#3D5656" stroke-width="4" stroke-linecap="round" stroke-linejoin="round"/>
<path d="M12 25H20V39H12V25ZM26 19H34V45H26V19Z" fill="#68B984" stroke="#68B984" stroke-width="4" stroke-linejoin="round"/>
<path d="M40 17H48V26H40V17Z" fill="#68B984" stroke="#68B984" stroke-width="4" stroke-linejoin="round"/>
<rect x="12" y="25" width="8" height="4" rx="1" fill="#CFFDE1"/>
<rect x="12" y="30" width="8" height="4" rx="1" fill="#CFFDE1"/>
<rect x="26" y="19" width="8" height="4" rx="1" fill="#CFFDE1"/>
<rect x="40" y="17" width="8" height="4" rx="1" fill="#CFFDE1"/>
<rect x="26" y="24" width="8" height="4" rx="1" fill="#CFFDE1"/>
<rect x="26" y="29" width="8" height="4" rx="1" fill="#CFFDE1"/>
<rect x="26" y="34" width="8" height="4" rx="1" fill="#CFFDE1"/>
<rect x="14" y="37" width="4" height="4" rx="1" fill="#CFFDE1"/>
<rect x="28" y="43" width="4" height="4" rx="1" fill="#CFFDE1"/>
<rect x="42" y="24" width="4" height="4" rx="1" fill="#CFFDE1"/>
</svg>
